<?xml version="1.0" standalone="no"?>
<!DOCTYPE svg PUBLIC "-//W3C//DTD SVG 20010904//EN"
 "http://www.w3.org/TR/2001/REC-SVG-20010904/DTD/svg10.dtd">
<svg version="1.0" xmlns="http://www.w3.org/2000/svg"
 width="239.000000pt" height="239.000000pt" viewBox="0 0 239.000000 239.000000"
 preserveAspectRatio="xMidYMid meet">
<metadata>
Created by potrace 1.14, written by Peter Selinger 2001-2017
</metadata>
<g transform="translate(0.000000,239.000000) scale(0.100000,-0.100000)"
fill="#000000" stroke="none">
<path d="M2010 2303 c-371 -48 -776 -213 -1056 -429 -28 -22 -68 -52 -90 -69
-46 -35 -267 -255 -307 -305 -71 -90 -94 -121 -152 -210 -184 -279 -305 -605
-360 -967 -8 -52 -9 -52 105 -19 78 23 158 45 235 66 17 4 106 28 198 54 93
25 174 46 182 46 7 0 41 -48 75 -108 166 -285 183 -312 204 -317 11 -2 95 -3
186 -2 l165 2 7 90 c24 318 245 621 545 750 106 46 244 75 356 75 l87 0 0 680
0 681 -137 -2 c-76 -1 -185 -8 -243 -16z"/>
</g>
</svg>
